<svg xmlns="http://www.w3.org/2000/svg" xmlns:xlink="http://www.w3.org/1999/xlink" width="279" height="49" viewBox="0 0 279 49"><defs><linearGradient id="a" x1="100%" x2="1.857%" y1="100%" y2="1.857%"><stop offset="0%" stop-color="#073E67" stop-opacity=".7"/><stop offset="33.333%" stop-color="#26400C" stop-opacity=".7"/><stop offset="66.667%" stop-color="#4E2F0B" stop-opacity=".7"/><stop offset="100%" stop-color="#8F4E07" stop-opacity=".7"/></linearGradient><linearGradient id="c" x1="100%" x2="0%" y1="50%" y2="50%"><stop offset="0%" stop-color="#1090EF"/><stop offset="33.333%" stop-color="#647553"/><stop offset="66.667%" stop-color="#876D4A"/><stop offset="100%" stop-color="#CC8B25"/></linearGradient><path id="b" d="M12 12h249c2.762 0 6.584 1.583 8.53 3.529l17.941 17.942c1.95 1.95 3.529 5.765 3.529 8.531V61H42.002c-2.762 0-6.585-1.583-8.53-3.529L15.528 39.53C13.579 37.579 12 33.764 12 30.998V12z"/></defs><g fill="none" fill-rule="evenodd" transform="matrix(1 0 0 -1 -12 61)"><use fill="url(#a)" fill-opacity=".25" xlink:href="#b"/><path stroke="url(#c)" d="M12.5 12.5v18.498c0 2.632 1.527 6.321 3.382 8.177l17.943 17.943c1.853 1.853 5.549 3.382 8.177 3.382H290.5V42.002c0-2.632-1.526-6.321-3.382-8.177l-17.941-17.943c-1.853-1.853-5.549-3.382-8.178-3.382H12.5z"/></g></svg>