<svg xmlns="http://www.w3.org/2000/svg" xmlns:xlink="http://www.w3.org/1999/xlink" width="73" height="345" viewBox="0 0 73 345"><defs><path id="a" d="M21.471 3.529C23.421 1.579 27.235 0 30.001 0H73v315.006c0 2.758-1.583 6.577-3.529 8.523L51.53 341.47c-1.95 1.95-5.764 3.529-8.53 3.529H0V29.994c0-2.758 1.583-6.577 3.529-8.523L21.47 3.53z"/></defs><g fill="none" fill-rule="evenodd"><use fill="#131313" fill-opacity=".4" xlink:href="#a"/><path stroke="#474747" d="M.5 344.5h42.499c2.632 0 6.32-1.526 8.176-3.382l17.943-17.943c1.853-1.853 3.382-5.545 3.382-8.17V.5H30.001c-2.632 0-6.32 1.526-8.176 3.382L3.882 21.825C2.03 23.678.5 27.37.5 29.995V344.5z"/></g></svg>